<svg version="1.0" xmlns="http://www.w3.org/2000/svg"
 width="400.000000pt" height="400.000000pt" viewBox="0 0 1280.000000 1014.000000">
<g transform="translate(0.000000,1014.000000) scale(0.100000,-0.100000)"
fill="#000000" stroke="none">
<path d="M8545 10133 c-122 -16 -168 -51 -205 -151 l-21 -57 -572 3 c-821 5
-1186 -17 -1517 -89 -307 -67 -668 -195 -1040 -369 -388 -181 -458 -227 -673
-442 -106 -106 -195 -184 -273 -239 -226 -162 -302 -277 -450 -681 -50 -136
-125 -379 -284 -923 -34 -115 -120 -403 -190 -640 -71 -236 -188 -632 -260
-880 -72 -247 -158 -540 -190 -649 l-59 -200 -53 -54 c-29 -30 -186 -177 -348
-327 -309 -284 -427 -395 -731 -685 -393 -374 -550 -512 -979 -860 -362 -295
-447 -369 -555 -481 -131 -138 -170 -226 -127 -291 21 -32 136 -133 207 -183
28 -19 136 -70 240 -113 171 -71 537 -240 1185 -546 124 -59 338 -167 476
-241 453 -243 628 -322 1044 -470 1252 -447 2105 -607 2950 -555 310 20 776
71 1032 115 922 156 1428 499 2383 1615 354 412 669 830 1013 1340 129 191
148 215 171 214 336 -16 802 -23 976 -15 195 9 442 35 595 62 152 27 201 84
286 334 87 254 154 711 206 1405 19 249 16 902 -5 1138 -53 601 -139 1024
-255 1262 -39 81 -60 109 -142 191 -52 52 -141 128 -197 167 -127 90 -214 169
-263 242 -21 30 -78 136 -128 235 -96 192 -144 265 -238 359 -187 186 -571
469 -884 649 -411 237 -1002 453 -1452 532 -126 22 -118 18 -106 59 16 52 -4
91 -66 127 -132 75 -339 114 -501 92z"/>
</g>
</svg>